<svg id="visual" viewBox="0 0 1920 1080" width="1920" height="1080" xmlns="http://www.w3.org/2000/svg" xmlns:xlink="http://www.w3.org/1999/xlink" version="1.1"><rect x="0" y="0" width="1920" height="1080" fill="#191724"></rect><path d="M0 845L45.7 843.7C91.3 842.3 182.7 839.7 274.2 846.7C365.7 853.7 457.3 870.3 548.8 878.3C640.3 886.3 731.7 885.7 823 872.8C914.3 860 1005.7 835 1097 834.3C1188.3 833.7 1279.7 857.3 1371.2 862.3C1462.7 867.3 1554.3 853.7 1645.8 850.8C1737.3 848 1828.7 856 1874.3 860L1920 864L1920 1081L1874.3 1081C1828.7 1081 1737.3 1081 1645.8 1081C1554.3 1081 1462.7 1081 1371.2 1081C1279.7 1081 1188.3 1081 1097 1081C1005.7 1081 914.3 1081 823 1081C731.7 1081 640.3 1081 548.8 1081C457.3 1081 365.7 1081 274.2 1081C182.7 1081 91.3 1081 45.7 1081L0 1081Z" fill="#ebbcba"></path><path d="M0 863L45.7 875.8C91.3 888.7 182.7 914.3 274.2 923.3C365.7 932.3 457.3 924.7 548.8 919.7C640.3 914.7 731.7 912.3 823 908C914.3 903.7 1005.7 897.3 1097 891.8C1188.3 886.3 1279.7 881.7 1371.2 888.5C1462.7 895.3 1554.3 913.7 1645.8 923.7C1737.3 933.7 1828.7 935.3 1874.3 936.2L1920 937L1920 1081L1874.3 1081C1828.7 1081 1737.3 1081 1645.8 1081C1554.3 1081 1462.7 1081 1371.2 1081C1279.7 1081 1188.3 1081 1097 1081C1005.7 1081 914.3 1081 823 1081C731.7 1081 640.3 1081 548.8 1081C457.3 1081 365.7 1081 274.2 1081C182.7 1081 91.3 1081 45.7 1081L0 1081Z" fill="#edaaac"></path><path d="M0 949L45.7 945.7C91.3 942.3 182.7 935.7 274.2 940.8C365.7 946 457.3 963 548.8 965.8C640.3 968.7 731.7 957.3 823 945.3C914.3 933.3 1005.7 920.7 1097 913.7C1188.3 906.7 1279.7 905.3 1371.2 908.3C1462.7 911.3 1554.3 918.7 1645.8 930.2C1737.3 941.7 1828.7 957.3 1874.3 965.2L1920 973L1920 1081L1874.3 1081C1828.7 1081 1737.3 1081 1645.8 1081C1554.3 1081 1462.7 1081 1371.2 1081C1279.7 1081 1188.3 1081 1097 1081C1005.7 1081 914.3 1081 823 1081C731.7 1081 640.3 1081 548.8 1081C457.3 1081 365.7 1081 274.2 1081C182.7 1081 91.3 1081 45.7 1081L0 1081Z" fill="#ee97a1"></path><path d="M0 1013L45.7 1009.8C91.3 1006.7 182.7 1000.3 274.2 1000.7C365.7 1001 457.3 1008 548.8 1011.5C640.3 1015 731.7 1015 823 1011.5C914.3 1008 1005.7 1001 1097 993.3C1188.3 985.7 1279.7 977.3 1371.2 973.7C1462.7 970 1554.3 971 1645.8 974.8C1737.3 978.7 1828.7 985.3 1874.3 988.7L1920 992L1920 1081L1874.3 1081C1828.7 1081 1737.3 1081 1645.8 1081C1554.3 1081 1462.7 1081 1371.2 1081C1279.7 1081 1188.3 1081 1097 1081C1005.7 1081 914.3 1081 823 1081C731.7 1081 640.3 1081 548.8 1081C457.3 1081 365.7 1081 274.2 1081C182.7 1081 91.3 1081 45.7 1081L0 1081Z" fill="#ed8498"></path><path d="M0 1035L45.7 1034.5C91.3 1034 182.7 1033 274.2 1032.5C365.7 1032 457.3 1032 548.8 1028.5C640.3 1025 731.7 1018 823 1015.3C914.3 1012.7 1005.7 1014.3 1097 1016.3C1188.3 1018.3 1279.7 1020.7 1371.2 1020.3C1462.7 1020 1554.3 1017 1645.8 1019.3C1737.3 1021.7 1828.7 1029.3 1874.3 1033.2L1920 1037L1920 1081L1874.3 1081C1828.7 1081 1737.3 1081 1645.8 1081C1554.3 1081 1462.7 1081 1371.2 1081C1279.7 1081 1188.3 1081 1097 1081C1005.7 1081 914.3 1081 823 1081C731.7 1081 640.3 1081 548.8 1081C457.3 1081 365.7 1081 274.2 1081C182.7 1081 91.3 1081 45.7 1081L0 1081Z" fill="#eb6f92"></path></svg>